<?xml version="1.0" standalone="no"?>
<!DOCTYPE svg PUBLIC "-//W3C//DTD SVG 20010904//EN"
 "http://www.w3.org/TR/2001/REC-SVG-20010904/DTD/svg10.dtd">
<svg version="1.0" xmlns="http://www.w3.org/2000/svg"
 width="225.000000pt" height="35.000000pt" viewBox="0 0 225.000000 35.000000"
 preserveAspectRatio="xMidYMid meet">

<g transform="translate(0.000000,35.000000) scale(0.100000,-0.100000)"
fill="#000000" stroke="none">
<path d="M95 321 c-42 -26 -68 -57 -59 -72 4 -7 3 -10 -3 -6 -31 20 -32 -108
-1 -153 39 -56 71 -73 140 -76 58 -2 60 -2 18 5 l-45 8 43 1 c40 2 56 15 30
25 -8 3 -7 6 4 6 11 1 18 -9 21 -26 4 -26 4 -26 6 5 l1 32 -52 2 c-84 2 -88 3
-89 13 -1 15 -20 35 -29 30 -3 -2 -6 22 -4 53 3 66 6 84 12 77 3 -2 16 5 30
15 21 17 40 20 123 20 l99 0 0 30 0 30 -107 0 c-88 0 -114 -4 -138 -19z m235
-16 c0 -12 -15 -15 -87 -13 l-88 2 83 3 c45 2 82 8 82 13 0 6 2 10 5 10 3 0 5
-7 5 -15z m-303 -107 c-3 -8 -6 -5 -6 6 -1 11 2 17 5 13 3 -3 4 -12 1 -19z
m41 -128 c7 -11 11 -20 9 -20 -2 0 -12 9 -22 20 -10 11 -14 20 -9 20 5 0 15
-9 22 -20z m125 -17 c-7 -2 -21 -2 -30 0 -10 3 -4 5 12 5 17 0 24 -2 18 -5z"/>
<path d="M400 175 l0 -165 30 0 30 0 0 165 0 165 -30 0 -30 0 0 -165z m47 -77
c-1 -46 -3 -11 -3 77 0 88 2 125 3 83 2 -42 2 -114 0 -160z"/>
<path d="M517 320 c5 -18 15 -20 87 -22 l81 -2 -90 -6 -90 -6 93 -2 c91 -2
106 -8 77 -32 -18 -15 -20 -34 -2 -24 7 4 9 3 4 -2 -5 -5 -14 -9 -20 -9 -7 0
-11 -8 -11 -18 1 -9 -2 -15 -6 -12 -12 8 -33 -23 -24 -36 4 -7 3 -9 -3 -6 -6
4 -34 -25 -62 -63 l-51 -70 165 0 165 0 0 30 0 30 -98 0 c-96 0 -99 1 -97 22
1 13 8 23 16 23 8 0 13 8 13 18 -1 9 2 15 6 12 5 -3 24 17 44 45 38 52 44 66
24 54 -7 -4 -8 -3 -4 5 4 6 11 9 15 6 5 -2 23 16 40 40 l32 45 -154 0 c-150 0
-155 -1 -150 -20z m176 -267 c-7 -2 -19 -2 -25 0 -7 3 -2 5 12 5 14 0 19 -2
13 -5z m124 -25 c-3 -7 -5 -2 -5 12 0 14 2 19 5 13 2 -7 2 -19 0 -25z"/>
<path d="M880 175 l0 -165 35 0 35 0 0 135 c0 123 2 135 18 135 10 0 27 -7 38
-15 12 -8 24 -12 28 -10 3 3 4 2 1 -1 -2 -4 2 -16 10 -28 11 -14 15 -49 15
-118 l0 -98 36 0 37 0 -5 108 c-4 91 -8 115 -27 146 -14 22 -29 35 -37 32 -7
-3 -16 0 -20 6 -4 7 -3 8 4 4 7 -4 12 -5 12 -2 0 16 -66 36 -120 36 l-60 0 0
-165z m17 -77 c-1 -46 -3 -11 -3 77 0 88 2 125 3 83 2 -42 2 -114 0 -160z"/>
<path d="M1140 311 c0 -22 6 -30 24 -35 14 -3 41 -26 60 -50 35 -42 36 -44 34
-127 l-2 -84 -6 90 -6 90 -2 -92 -2 -93 35 0 35 0 0 88 c0 48 -5 104 -10 124
-12 43 -66 102 -87 94 -8 -3 -12 -2 -9 3 7 10 -17 21 -45 21 -14 0 -19 -7 -19
-29z"/>
<path d="M1434 321 c-71 -43 -99 -128 -70 -205 19 -50 49 -81 67 -70 8 4 10 3
5 -4 -9 -15 33 -32 78 -32 67 0 133 43 155 103 20 52 11 145 -12 130 -6 -4 -7
-1 -2 6 8 15 -28 57 -67 77 -39 20 -117 18 -154 -5z m153 -76 c32 -32 35 -39
31 -80 -4 -31 -2 -43 6 -38 6 3 7 2 3 -3 -5 -5 -12 -9 -15 -9 -14 0 -32 -17
-28 -24 3 -4 0 -8 -7 -9 -7 -1 -26 -4 -43 -8 -41 -8 -89 17 -110 57 -15 31
-15 54 1 93 7 15 5 17 -6 11 -12 -8 -12 -6 0 8 8 10 16 15 19 13 2 -3 14 1 26
9 37 27 84 19 123 -20z m80 -77 c-2 -13 -4 -5 -4 17 -1 22 1 32 4 23 2 -10 2
-28 0 -40z m-30 -10 c-3 -7 -5 -2 -5 12 0 14 2 19 5 13 2 -7 2 -19 0 -25z m13
-71 c0 -2 -12 -14 -27 -28 l-28 -24 24 28 c23 25 31 32 31 24z m-123 -33 c-3
-3 -12 -4 -19 -1 -8 3 -5 6 6 6 11 1 17 -2 13 -5z m-10 -30 c-3 -3 -12 -4 -19
-1 -8 3 -5 6 6 6 11 1 17 -2 13 -5z"/>
<path d="M1820 322 c-19 -10 -34 -23 -32 -31 1 -7 -2 -10 -8 -6 -6 4 -19 -13
-30 -37 -15 -33 -20 -65 -20 -140 l0 -98 30 0 30 0 0 90 c0 67 5 100 17 123 9
18 16 35 15 39 -1 5 1 7 6 6 4 -1 19 2 35 6 21 7 27 14 27 37 0 35 -18 38 -70
11z m57 2 c-3 -3 -12 -4 -19 -1 -8 3 -5 6 6 6 11 1 17 -2 13 -5z m-130 -267
c-2 -23 -3 -2 -3 48 0 50 1 68 3 42 2 -26 2 -67 0 -90z"/>
<path d="M1990 318 c-58 -40 -75 -72 -75 -142 0 -53 4 -68 29 -100 17 -23 34
-35 43 -32 8 3 11 1 8 -4 -10 -16 46 -32 97 -27 26 2 59 12 73 21 l27 18 -22
23 c-20 21 -24 22 -48 9 -15 -8 -35 -14 -45 -14 -55 0 -128 82 -107 121 6 10
10 25 8 32 -2 6 -1 12 2 12 3 0 18 10 34 23 43 34 90 30 132 -12 44 -44 43
-56 -6 -56 -37 0 -40 -2 -41 -27 -2 -25 -2 -24 -9 7 l-7 35 -2 -37 -1 -38 83
2 c70 1 76 2 37 8 l-45 7 44 1 44 2 -6 46 c-9 85 -76 144 -162 144 -38 0 -61
-6 -85 -22z m-10 -22 c0 -2 -8 -10 -17 -17 -16 -13 -17 -12 -4 4 13 16 21 21
21 13z m103 -3 c-7 -2 -21 -2 -30 0 -10 3 -4 5 12 5 17 0 24 -2 18 -5z m92
-233 c3 -5 1 -10 -4 -10 -6 0 -11 5 -11 10 0 6 2 10 4 10 3 0 8 -4 11 -10z"/>
<path d="M170 178 l0 -33 55 3 55 4 0 -71 0 -71 30 0 30 0 0 100 0 100 -85 0
-85 0 0 -32z m157 -121 c-2 -23 -3 -2 -3 48 0 50 1 68 3 42 2 -26 2 -67 0 -90z
m-30 26 c-3 -10 -5 -2 -5 17 0 19 2 27 5 18 2 -10 2 -26 0 -35z"/>
</g>
</svg>
