<svg xmlns="http://www.w3.org/2000/svg" xmlns:xlink="http://www.w3.org/1999/xlink" width="300" height="300" viewBox="0 0 300 300">
  <defs>
    <clipPath id="clip-App_Icon">
      <rect width="300" height="300"/>
    </clipPath>
  </defs>
  <g id="App_Icon" data-name="App Icon" clip-path="url(#clip-App_Icon)">
    <g id="TresCare" transform="translate(-648 -745)">
      <rect id="Rectangle_396" data-name="Rectangle 396" width="300" height="300" rx="70" transform="translate(648 745)"/>
      <g id="Group_438" data-name="Group 438" transform="translate(680.131 829.314)">
        <g id="Group_423" data-name="Group 423" transform="translate(0 0)">
          <path id="Path_239" data-name="Path 239" d="M-82.132-39.359h-18.617v-6.748h44.912v6.748H-74.453V8.191h-7.679ZM.711,8.191-11-8.487q-2.172.155-3.413.155H-27.834V8.191h-7.757v-54.3h21.176q10.549,0,16.6,5.042t6.05,13.885a18.161,18.161,0,0,1-3.1,10.7A17.53,17.53,0,0,1-3.71-10.038L9.166,8.191ZM-14.648-14.925q7.369,0,11.247-3.18T.478-27.181q0-5.9-3.878-9.037t-11.247-3.142H-27.834v24.434ZM112.178,8.811a37.161,37.161,0,0,1-11.829-1.9,24.291,24.291,0,0,1-8.959-4.926l2.87-6.05A23.766,23.766,0,0,0,102.21.473a29.213,29.213,0,0,0,9.968,1.745q6.748,0,10.084-2.288A7.054,7.054,0,0,0,125.6-6.159a6,6,0,0,0-1.823-4.538,12.19,12.19,0,0,0-4.5-2.676q-2.676-.931-7.563-2.094a77.938,77.938,0,0,1-9.89-2.948,16.352,16.352,0,0,1-6.438-4.538,12.118,12.118,0,0,1-2.676-8.261A13.977,13.977,0,0,1,95-39.049a15.718,15.718,0,0,1,6.942-5.585A28.161,28.161,0,0,1,113.5-46.728a36.573,36.573,0,0,1,9.463,1.241,25.178,25.178,0,0,1,7.99,3.568l-2.56,6.205a28.083,28.083,0,0,0-7.291-3.3,27.215,27.215,0,0,0-7.6-1.125q-6.593,0-9.89,2.4a7.365,7.365,0,0,0-3.3,6.206,5.936,5.936,0,0,0,1.862,4.538,12.915,12.915,0,0,0,4.615,2.715,72.113,72.113,0,0,0,7.485,2.056,75.825,75.825,0,0,1,9.851,2.948,16.584,16.584,0,0,1,6.4,4.5A11.849,11.849,0,0,1,133.2-6.625a13.865,13.865,0,0,1-2.327,7.8,15.587,15.587,0,0,1-7.059,5.585A29.2,29.2,0,0,1,112.178,8.811Z" transform="translate(100.749 46.728)" fill="#fff"/>
          <rect id="Rectangle_387" data-name="Rectangle 387" width="37.52" height="6.879" rx="3.439" transform="translate(133.894 0.773)" fill="#3ab81c"/>
          <rect id="Rectangle_388" data-name="Rectangle 388" width="26.264" height="6.879" rx="3.439" transform="translate(133.894 24.536)" fill="#e79e05"/>
          <rect id="Rectangle_389" data-name="Rectangle 389" width="37.52" height="6.879" rx="3.439" transform="translate(133.894 48.299)" fill="#df4242"/>
        </g>
        <path id="Path_248" data-name="Path 248" d="M30.35,29.1a29.844,29.844,0,0,1-14.634-3.591A26.422,26.422,0,0,1,5.483,15.622,27.4,27.4,0,0,1,1.776,1.451,27.4,27.4,0,0,1,5.483-12.72a26.351,26.351,0,0,1,10.271-9.885A30.064,30.064,0,0,1,30.427-26.2a30.625,30.625,0,0,1,11.584,2.124,23.709,23.709,0,0,1,8.958,6.294l-5.02,4.865a20.14,20.14,0,0,0-15.213-6.41,22.038,22.038,0,0,0-10.889,2.7A19.6,19.6,0,0,0,12.24-9.168,20.853,20.853,0,0,0,9.5,1.451,20.853,20.853,0,0,0,12.24,12.069a19.6,19.6,0,0,0,7.607,7.452,22.038,22.038,0,0,0,10.889,2.7,20.182,20.182,0,0,0,15.213-6.487l5.02,4.865a24.023,24.023,0,0,1-9,6.333A30.434,30.434,0,0,1,30.35,29.1Zm70.97-14.132H72.592L66.646,28.48H58.691L83.172-25.578h7.645L115.375,28.48h-8.109Zm-2.7-6.178L86.956-17.7,75.295,8.787ZM165.726,28.48l-11.661-16.6q-2.162.154-3.4.154h-13.36V28.48h-7.723V-25.578h21.083q10.5,0,16.526,5.02t6.024,13.823a18.081,18.081,0,0,1-3.089,10.657,17.453,17.453,0,0,1-8.8,6.41L174.144,28.48ZM150.436,5.467q7.336,0,11.2-3.166t3.861-9.035q0-5.869-3.861-9t-11.2-3.128H137.307V5.467Zm80.7,16.295V28.48H191.906V-25.578h38.15v6.719H199.628v16.6h27.106V4.308H199.628V21.761Z" transform="translate(-1.144 100.409)" fill="#3ab81c"/>
      </g>
    </g>
  </g>
</svg>
