<svg xmlns="http://www.w3.org/2000/svg" width="351.702" height="45" viewBox="0 0 351.702 45">
  <g id="horizontal-black" transform="translate(-256 -301)">
    <g id="Group_423" data-name="Group 423" transform="translate(-0.942 -100.381)">
      <path id="Path_239" data-name="Path 239" d="M-85.864-40.836h-14.885v-5.4h35.911v5.4H-79.724V-2.817h-6.14ZM-19.624-2.817-28.99-16.151q-1.737.124-2.729.124h-10.73V-2.817h-6.2V-46.232h16.932q8.435,0,13.273,4.031t4.838,11.1a14.521,14.521,0,0,1-2.481,8.559,14.016,14.016,0,0,1-7.07,5.148l10.3,14.575ZM-31.9-21.3q5.892,0,8.993-2.543a8.85,8.85,0,0,0,3.1-7.257,8.76,8.76,0,0,0-3.1-7.226q-3.1-2.512-8.993-2.512H-42.448V-21.3ZM69.5-2.32a29.713,29.713,0,0,1-9.458-1.52,19.423,19.423,0,0,1-7.164-3.938l2.295-4.838a19,19,0,0,0,6.357,3.628,23.358,23.358,0,0,0,7.97,1.4q5.4,0,8.063-1.83a5.64,5.64,0,0,0,2.667-4.869,4.8,4.8,0,0,0-1.458-3.628,9.747,9.747,0,0,0-3.6-2.14q-2.14-.744-6.047-1.675a62.317,62.317,0,0,1-7.908-2.357,13.075,13.075,0,0,1-5.148-3.628,9.689,9.689,0,0,1-2.14-6.605,11.176,11.176,0,0,1,1.83-6.264,12.567,12.567,0,0,1,5.551-4.466,22.516,22.516,0,0,1,9.241-1.675,29.243,29.243,0,0,1,7.567.992,20.131,20.131,0,0,1,6.388,2.853l-2.047,4.962a22.454,22.454,0,0,0-5.83-2.636,21.76,21.76,0,0,0-6.078-.9q-5.272,0-7.908,1.923a5.889,5.889,0,0,0-2.636,4.962A4.746,4.746,0,0,0,61.5-30.943a10.326,10.326,0,0,0,3.69,2.171,57.657,57.657,0,0,0,5.985,1.644,60.627,60.627,0,0,1,7.877,2.357,13.26,13.26,0,0,1,5.117,3.6,9.474,9.474,0,0,1,2.14,6.512A11.086,11.086,0,0,1,84.448-8.43,12.463,12.463,0,0,1,78.8-3.964,23.346,23.346,0,0,1,69.5-2.32Z" transform="translate(357.691 448.11)"/>
      <rect id="Rectangle_387" data-name="Rectangle 387" width="30" height="5.5" rx="2.75" transform="translate(364 402)" fill="#3ab81c"/>
      <rect id="Rectangle_388" data-name="Rectangle 388" width="21" height="5.5" rx="2.75" transform="translate(364 421)" fill="#e79e05"/>
      <rect id="Rectangle_389" data-name="Rectangle 389" width="30" height="5.5" rx="2.75" transform="translate(364 440)" fill="#df4242"/>
    </g>
    <path id="Path_271" data-name="Path 271" d="M16.3.312A15.071,15.071,0,0,1,8.911-1.5,13.343,13.343,0,0,1,3.744-6.494,13.835,13.835,0,0,1,1.872-13.65a13.835,13.835,0,0,1,1.872-7.157A13.307,13.307,0,0,1,8.931-25.8a15.183,15.183,0,0,1,7.41-1.813,15.466,15.466,0,0,1,5.85,1.072,11.973,11.973,0,0,1,4.524,3.178L24.18-20.9A10.171,10.171,0,0,0,16.5-24.141,11.129,11.129,0,0,0,11-22.776a9.9,9.9,0,0,0-3.841,3.764A10.531,10.531,0,0,0,5.772-13.65,10.531,10.531,0,0,0,7.157-8.288,9.9,9.9,0,0,0,11-4.524a11.129,11.129,0,0,0,5.5,1.365A10.192,10.192,0,0,0,24.18-6.435l2.535,2.457a12.132,12.132,0,0,1-4.544,3.2A15.369,15.369,0,0,1,16.3.312ZM52.143-6.825H37.635L34.632,0H30.615L42.978-27.3h3.861L59.241,0h-4.1Zm-1.365-3.12L44.889-23.322,39-9.945ZM84.669,0,78.78-8.385q-1.092.078-1.716.078H70.317V0h-3.9V-27.3H77.064q5.3,0,8.346,2.535a8.6,8.6,0,0,1,3.042,6.981,9.131,9.131,0,0,1-1.56,5.382,8.814,8.814,0,0,1-4.446,3.237L88.92,0ZM76.947-11.622a8.725,8.725,0,0,0,5.655-1.6,5.565,5.565,0,0,0,1.95-4.563,5.508,5.508,0,0,0-1.95-4.544,8.8,8.8,0,0,0-5.655-1.58h-6.63v12.285ZM117.7-3.393V0H97.89V-27.3h19.266v3.393H101.79v8.385h13.689v3.315H101.79v8.814Z" transform="translate(490 337)" fill="#3ab81c"/>
    <rect id="Rectangle_390" data-name="Rectangle 390" width="1" height="45" transform="translate(466 301)"/>
  </g>
</svg>
